PathFileType  4	(X/Y/Z) C:\Users\antoi\Documents\MyRepositories\mobilecap\ResultsAnalysis
DataRate	CameraRate	NumFrames	NumMarkers	Units	OrigDataRate	OrigDataStartFrame	OrigNumFrames
100.0	100.0	4	51	mm	100.0	541	2161
Frame#	Time	r_knee			r_shank_antsup			r_ankle			r_calc			r_5meta			r_toe			L_knee			L_shank_antsup			L_ankle			L_calc			L_5meta			L_toe			r_sh2			r_sh3			r_sh4			L_sh2			L_sh3			r_thigh1			r_thigh2			r_thigh3			r_thigh4			r_thigh5			L_thigh1			L_thigh2			L_thigh3			L_thigh4			r.ASIS			r.PSIS			L.ASIS			L.PSIS			C7			R_Shoulder			L_Shoulder			R_Sternum			L_Sternum			R_humerus			R_elbow_med			R_elbow_lat			R_forearm			R_wrist_radius			R_wrist_ulna			L_humerus			L_elbow_med			L_elbow_lat			L_forearm			L_wrist_radius			L_wrist_ulna			R_HJC			L_HJC			R_HJC_reg			L_HJC_reg			
		X1	Y1	Z1	X2	Y2	Z2	X3	Y3	Z3	X4	Y4	Z4	X5	Y5	Z5	X6	Y6	Z6	X7	Y7	Z7	X8	Y8	Z8	X9	Y9	Z9	X10	Y10	Z10	X11	Y11	Z11	X12	Y12	Z12	X13	Y13	Z13	X14	Y14	Z14	X15	Y15	Z15	X16	Y16	Z16	X17	Y17	Z17	X18	Y18	Z18	X19	Y19	Z19	X20	Y20	Z20	X21	Y21	Z21	X22	Y22	Z22	X23	Y23	Z23	X24	Y24	Z24	X25	Y25	Z25	X26	Y26	Z26	X27	Y27	Z27	X28	Y28	Z28	X29	Y29	Z29	X30	Y30	Z30	X31	Y31	Z31	X32	Y32	Z32	X33	Y33	Z33	X34	Y34	Z34	X35	Y35	Z35	X36	Y36	Z36	X37	Y37	Z37	X38	Y38	Z38	X39	Y39	Z39	X40	Y40	Z40	X41	Y41	Z41	X42	Y42	Z42	X43	Y43	Z43	X44	Y44	Z44	X45	Y45	Z45	X46	Y46	Z46	X47	Y47	Z47	X48	Y48	Z48	X49	Y49	Z49	X50	Y50	Z50	X51	Y51	Z51	

541	5.40000000	-190.73113	478.74571	-412.38477	-130.28660	437.63451	-418.02142	-265.16830	98.18151	-426.68571	-324.15372	50.05052	-475.47231	-145.27688	56.14076	-394.80787	-106.00184	85.26175	-446.05667	-198.19497	476.73815	-801.38573	-155.99680	403.79195	-809.28003	-259.27664	100.09361	-771.57722	-315.47408	53.95218	-720.88917	-140.27924	57.81095	-808.21901	-95.86693	83.81490	-759.04913	-151.64794	324.43383	-433.98494	-200.16918	443.70600	-385.25288	-217.58064	328.71440	-381.57909	-264.24509	303.13438	-808.72834	-242.08270	425.78121	-817.01149	-465.58291	575.63913	-505.08103	-355.90130	584.55265	-482.29497	-343.23264	567.95906	-419.21170	-479.35179	526.49590	-406.82108	-365.65445	524.34206	-390.72862	-504.51456	549.12959	-781.69637	-365.16373	532.06750	-810.48422	-519.42093	438.17937	-798.78865	-382.85437	418.53657	-786.87335	-563.01743	609.14495	-480.65648	-735.39446	527.48509	-556.70118	-557.93319	596.84396	-713.59217	-736.16695	527.80190	-653.05577	-685.99961	1028.49866	-616.48452	-606.18106	984.12973	-448.19584	-615.51705	971.83615	-776.74753	-580.61474	928.31087	-596.22183	-579.64732	925.16255	-632.23793	-622.27047	757.61379	-348.24516	-684.90502	651.98712	-373.44103	-640.71681	669.60906	-318.89646	-523.72544	712.55722	-381.58429	-465.22768	767.18452	-442.65769	-443.04828	727.75349	-436.48864	-624.34438	746.38146	-864.42222	-655.99131	628.10361	-815.72271	-633.44643	637.58998	-883.59019	-507.10309	696.41020	-834.74437	-440.46815	762.90782	-785.45148	-421.48463	723.40919	-777.26968	-577.03751	498.89589	-512.06884	-587.51238	492.92661	-702.35866	-575.28527	505.70781	-513.02909	-576.51934	506.21401	-667.01214	
542	5.41000000	-189.83072	478.54259	-412.27505	-129.55025	437.22679	-418.04073	-265.83698	98.66930	-427.88319	-324.85765	50.63617	-476.70258	-145.02545	56.05902	-394.36002	-105.67102	84.61642	-445.84217	-197.30652	476.69400	-801.82265	-155.21184	403.33840	-808.99333	-258.93091	100.01015	-771.60015	-315.22700	54.03935	-720.92769	-140.00654	57.71961	-808.69660	-95.56328	83.07497	-758.88949	-150.86627	324.13131	-433.86276	-199.21871	443.24738	-385.34229	-216.96755	328.51786	-381.44861	-263.28321	303.60467	-807.60927	-241.31977	425.51466	-816.87130	-464.62484	575.48854	-504.86458	-354.93723	584.39210	-482.20699	-342.31101	567.81541	-419.08748	-478.58991	526.61853	-406.41052	-364.74658	524.23332	-390.57495	-503.78429	548.92367	-781.40781	-364.21064	531.83625	-810.23065	-518.60810	438.28434	-798.89146	-382.02624	418.26825	-786.74214	-560.72356	608.54531	-480.56424	-733.99656	528.95787	-556.55884	-555.74246	596.63448	-713.49104	-734.75117	529.32221	-652.75468	-678.57680	1029.33283	-615.86907	-599.11957	983.92568	-447.86263	-608.32099	972.04679	-775.99081	-574.34920	928.01360	-595.79568	-573.44411	924.85964	-631.68473	-616.27374	757.72916	-347.62243	-679.36716	652.29074	-372.59639	-635.04337	669.89923	-317.97837	-518.03747	712.32941	-380.99324	-459.37629	766.70174	-442.25587	-437.47188	726.99676	-436.22928	-618.16402	746.75984	-864.11850	-650.76986	628.67811	-815.86749	-627.53321	638.29145	-884.29935	-501.24082	696.39644	-834.68727	-434.47643	762.40809	-784.80849	-415.61833	722.81267	-776.74698	-575.89148	498.55713	-512.04471	-586.53076	492.96867	-702.33419	-574.20133	505.46449	-512.98283	-575.40915	506.04741	-666.94771	
543	5.42000000	-188.86044	478.26010	-412.20344	-128.64726	436.91085	-418.10100	-266.20813	98.86197	-428.64976	-325.30898	51.01476	-477.53304	-144.78316	55.76533	-394.22474	-105.32938	83.97485	-445.62220	-196.46881	476.03733	-801.26148	-154.41577	403.00316	-808.91762	-258.60385	99.89203	-771.54148	-314.97054	54.15554	-720.96762	-139.76046	57.26316	-808.79116	-95.22574	82.31270	-758.82381	-150.07635	323.75976	-433.75777	-198.32896	442.81145	-385.26341	-216.33727	328.58209	-381.11114	-261.86292	303.76021	-808.27624	-240.52838	425.14018	-816.52624	-463.60688	575.31890	-504.67384	-353.94414	584.21298	-482.03076	-341.32772	567.60374	-419.01456	-477.63606	526.63658	-406.11442	-363.76188	524.11281	-390.42097	-502.66168	548.82149	-781.64496	-363.22952	531.59505	-810.02743	-517.83549	438.27300	-798.87543	-381.18895	418.07892	-786.70950	-557.63285	606.78411	-480.19374	-732.63345	530.56766	-556.68326	-553.50193	596.57309	-713.52171	-733.28066	530.99333	-652.43280	-670.81164	1030.13517	-615.36816	-591.80774	983.62212	-447.52385	-600.84211	972.05468	-775.41354	-567.79282	927.60241	-595.47973	-567.35526	924.52467	-630.94763	-609.94629	757.78824	-347.07528	-673.54791	652.51963	-371.59917	-629.04851	670.15753	-316.98983	-512.10523	712.11762	-380.26651	-453.32449	766.08796	-441.81335	-431.71367	727.75071	-435.85372	-611.73018	747.20360	-864.00055	-644.94276	628.81497	-816.13341	-621.66807	638.57246	-884.37620	-495.11756	696.24733	-834.42261	-428.29207	761.82969	-784.21886	-409.47907	722.00342	-776.18352	-574.63134	497.32012	-512.52255	-585.78960	493.14140	-702.81804	-573.54334	504.74207	-512.77837	-574.58586	505.42748	-666.94338	
544	5.43000000	-187.86090	477.88496	-412.22447	-127.66003	436.61603	-418.03816	-265.81518	98.51577	-428.38922	-325.08846	50.97391	-477.34232	-144.59706	55.05201	-394.41857	-105.06897	83.36492	-445.62224	-195.70332	475.03735	-799.95054	-153.60598	402.89386	-809.19481	-258.30032	99.80512	-771.52008	-314.75546	54.27483	-720.95093	-139.53353	56.74650	-808.89443	-94.90045	81.63472	-758.83970	-149.40433	323.51330	-433.74523	-197.48019	442.56415	-385.08719	-215.38515	328.31445	-381.08718	-260.19577	303.62681	-810.86035	-239.67979	424.91392	-816.43271	-462.54628	575.11882	-504.65924	-352.95868	583.62298	-482.42251	-340.29042	567.35990	-419.01462	-476.51828	526.51568	-405.90614	-362.75189	523.96623	-390.24284	-501.47265	548.83367	-781.95672	-362.25025	531.44821	-810.06575	-517.18643	437.96183	-798.58163	-380.34355	418.01728	-786.78987	-554.77728	605.65175	-479.75270	-731.51456	532.03067	-556.77671	-550.49763	596.43610	-713.79575	-731.90037	532.63876	-652.23723	-662.73589	1030.88176	-614.99175	-584.26595	983.23548	-447.02066	-593.21243	972.01558	-774.88033	-561.10281	927.07565	-595.04996	-560.83758	924.09799	-630.29995	-603.34083	757.76349	-346.43130	-667.41742	652.74429	-370.42948	-622.78432	670.29074	-316.16098	-505.65643	711.91070	-379.36970	-446.94577	765.40874	-441.30326	-425.79295	728.90847	-435.24673	-605.00072	747.67774	-864.04102	-638.59945	628.82806	-816.71659	-615.65795	638.69634	-884.10305	-488.72594	696.03840	-834.08628	-421.87945	761.22051	-783.74176	-403.03745	721.19161	-775.78895	-573.47888	496.50943	-512.71224	-584.70468	493.18283	-703.02533	-572.45711	503.98235	-512.70312	-573.08263	504.96727	-667.31023	
